# xmcd
#
# Track frame offsets:
#	150
#	13358
#	29491
#	40625
#	54658
#	69816
#	84318
#	96701
#	110659
#	121781
#	135409
#	148936
#	164169
#	178202
#	192704
#	206662
#
# Disc length: 2958 seconds
#
# Revision: 1
# Processed by: cddbd v1.5.2PL0 Copyright (c) Steve Scherf et al.
# Submitted via: audiograbber 1.83.01
#
DISCID=f40b8c10
DTITLE=Bronco - Exitos Bronco Vol. I  192
DYEAR=2018
DGENRE=Cumbia Norteña
TTITLE0=Si te vuelves a enamorar
TTITLE1=Corazon duro
TTITLE2=El sheriff de chocolate
TTITLE3=Tengo ganas
TTITLE4=Te quise una vez
TTITLE5=Seva, se va
TTITLE6=Mirenla, mirenla, mirenla
TTITLE7=Mal amor
TTITLE8=Nunca voy a olvidrarte
TTITLE9=Aunque no me quieras
TTITLE10=Cinco locos
TTITLE11=Sed
TTITLE12=Tengo ganas (Multiplex)
TTITLE13=Seva, se va  (Multiplex)
TTITLE14=Mal amor (Multiplex)
TTITLE15=Sed (Multiplex)
EXTD=karaoke K-box
EXTT0=
EXTT1=
EXTT2=
EXTT3=
EXTT4=
EXTT5=
EXTT6=
EXTT7=
EXTT8=
EXTT9=
EXTT10=
EXTT11=
EXTT12=
EXTT13=
EXTT14=
EXTT15=
PLAYORDER=
